<svg width="32" height="32" viewBox="0 0 32 32" fill="none" xmlns="http://www.w3.org/2000/svg">
<path d="M22.7692 14.7692C22.7692 16.1081 22.3722 17.4168 21.6284 18.53C20.8846 19.6432 19.8274 20.5108 18.5905 21.0232C17.3536 21.5355 15.9925 21.6696 14.6794 21.4084C13.3663 21.1472 12.1601 20.5025 11.2134 19.5558C10.2667 18.6091 9.62204 17.4029 9.36084 16.0898C9.09965 14.7767 9.2337 13.4157 9.74605 12.1788C10.2584 10.9418 11.126 9.88463 12.2392 9.14082C13.3524 8.39701 14.6612 8 16 8C17.7947 8.00203 19.5153 8.71587 20.7843 9.98491C22.0534 11.2539 22.7672 12.9745 22.7692 14.7692ZM32 16C32 19.1645 31.0616 22.2579 29.3035 24.8891C27.5454 27.5203 25.0466 29.5711 22.1229 30.7821C19.1993 31.9931 15.9823 32.3099 12.8786 31.6926C9.77486 31.0752 6.92394 29.5513 4.6863 27.3137C2.44866 25.0761 0.924806 22.2251 0.307443 19.1214C-0.309921 16.0177 0.00693255 12.8007 1.21793 9.87706C2.42894 6.95344 4.4797 4.45459 7.11088 2.69649C9.74207 0.938383 12.8355 0 16 0C20.2421 0.00447972 24.3092 1.69163 27.3088 4.69124C30.3084 7.69085 31.9955 11.7579 32 16ZM29.5385 16C29.5365 14.1777 29.167 12.3746 28.4522 10.6984C27.7374 9.0222 26.6919 7.50737 25.3782 6.24451C24.0645 4.98165 22.5096 3.9967 20.8065 3.34856C19.1034 2.70041 17.2871 2.40239 15.4662 2.47231C8.22001 2.75231 2.44154 8.78769 2.46154 16.0385C2.46849 19.3393 3.68589 22.5229 5.88308 24.9861C6.77789 23.6883 7.91453 22.5752 9.23077 21.7077C9.343 21.6336 9.47641 21.5983 9.61061 21.6071C9.7448 21.616 9.87239 21.6686 9.97385 21.7569C11.6464 23.2036 13.784 23.9998 15.9954 23.9998C18.2068 23.9998 20.3443 23.2036 22.0169 21.7569C22.1184 21.6686 22.246 21.616 22.3802 21.6071C22.5144 21.5983 22.6478 21.6336 22.76 21.7077C24.0779 22.5747 25.2161 23.6879 26.1123 24.9861C28.3204 22.5139 29.5401 19.3147 29.5385 16Z" fill="#252525"/>
</svg>
