<svg width="17" height="18" viewBox="0 0 17 18" fill="none" xmlns="http://www.w3.org/2000/svg">
<path d="M16 3.66666H1.33337" stroke="#252525" stroke-width="1.5" stroke-linecap="round" stroke-linejoin="round"/>
<path d="M16 3.66666H1.33337" stroke="black" stroke-opacity="0.2" stroke-width="1.5" stroke-linecap="round" stroke-linejoin="round"/>
<path d="M6.66675 7.66666V13" stroke="#252525" stroke-width="1.5" stroke-linecap="round" stroke-linejoin="round"/>
<path d="M6.66675 7.66666V13" stroke="black" stroke-opacity="0.2" stroke-width="1.5" stroke-linecap="round" stroke-linejoin="round"/>
<path d="M10.6667 7.66666V13" stroke="#252525" stroke-width="1.5" stroke-linecap="round" stroke-linejoin="round"/>
<path d="M10.6667 7.66666V13" stroke="black" stroke-opacity="0.2" stroke-width="1.5" stroke-linecap="round" stroke-linejoin="round"/>
<path d="M14.6667 3.66666V16.3333C14.6667 16.5101 14.5965 16.6797 14.4715 16.8047C14.3465 16.9298 14.1769 17 14.0001 17H3.33341C3.1566 17 2.98703 16.9298 2.86201 16.8047C2.73699 16.6797 2.66675 16.5101 2.66675 16.3333V3.66666" stroke="#252525" stroke-width="1.5" stroke-linecap="round" stroke-linejoin="round"/>
<path d="M14.6667 3.66666V16.3333C14.6667 16.5101 14.5965 16.6797 14.4715 16.8047C14.3465 16.9298 14.1769 17 14.0001 17H3.33341C3.1566 17 2.98703 16.9298 2.86201 16.8047C2.73699 16.6797 2.66675 16.5101 2.66675 16.3333V3.66666" stroke="black" stroke-opacity="0.2" stroke-width="1.5" stroke-linecap="round" stroke-linejoin="round"/>
<path d="M12 3.66667V2.33333C12 1.97971 11.8596 1.64057 11.6095 1.39052C11.3595 1.14048 11.0203 1 10.6667 1H6.66671C6.31309 1 5.97395 1.14048 5.7239 1.39052C5.47385 1.64057 5.33337 1.97971 5.33337 2.33333V3.66667" stroke="#252525" stroke-width="1.5" stroke-linecap="round" stroke-linejoin="round"/>
<path d="M12 3.66667V2.33333C12 1.97971 11.8596 1.64057 11.6095 1.39052C11.3595 1.14048 11.0203 1 10.6667 1H6.66671C6.31309 1 5.97395 1.14048 5.7239 1.39052C5.47385 1.64057 5.33337 1.97971 5.33337 2.33333V3.66667" stroke="black" stroke-opacity="0.2" stroke-width="1.5" stroke-linecap="round" stroke-linejoin="round"/>
</svg>
