<svg width="19" height="18" viewBox="0 0 19 18" fill="none" xmlns="http://www.w3.org/2000/svg">
<path d="M5.91508 17H2.02902C1.84452 17 1.66758 16.9267 1.53712 16.7963C1.40667 16.6658 1.33337 16.4889 1.33337 16.3044V12.4183C1.33346 12.234 1.40664 12.0574 1.53685 11.927L12.2603 1.20359C12.3907 1.07323 12.5676 1 12.752 1C12.9364 1 13.1133 1.07323 13.2437 1.20359L17.1298 5.08704C17.2601 5.21749 17.3334 5.39436 17.3334 5.57878C17.3334 5.76319 17.2601 5.94007 17.1298 6.07051L6.40638 16.7965C6.27602 16.9267 6.09933 16.9999 5.91508 17Z" stroke="#252525" stroke-width="1.5" stroke-linecap="round" stroke-linejoin="round"/>
<path d="M5.91508 17H2.02902C1.84452 17 1.66758 16.9267 1.53712 16.7963C1.40667 16.6658 1.33337 16.4889 1.33337 16.3044V12.4183C1.33346 12.234 1.40664 12.0574 1.53685 11.927L12.2603 1.20359C12.3907 1.07323 12.5676 1 12.752 1C12.9364 1 13.1133 1.07323 13.2437 1.20359L17.1298 5.08704C17.2601 5.21749 17.3334 5.39436 17.3334 5.57878C17.3334 5.76319 17.2601 5.94007 17.1298 6.07051L6.40638 16.7965C6.27602 16.9267 6.09933 16.9999 5.91508 17Z" stroke="black" stroke-opacity="0.2" stroke-width="1.5" stroke-linecap="round" stroke-linejoin="round"/>
<path d="M9.68115 3.78268L14.5507 8.65222" stroke="#252525" stroke-width="1.5" stroke-linecap="round" stroke-linejoin="round"/>
<path d="M9.68115 3.78268L14.5507 8.65222" stroke="black" stroke-opacity="0.2" stroke-width="1.5" stroke-linecap="round" stroke-linejoin="round"/>
</svg>
