<svg width="179" height="27" viewBox="0 0 179 27" fill="none" xmlns="http://www.w3.org/2000/svg">
<path d="M0.0264664 15.3753H2.67983C2.67983 17.3999 4.61987 18.942 7.10211 18.942C9.44208 18.942 11.3244 17.6307 11.3244 15.6906C11.3244 11.1261 0.370637 13.2372 0.370637 6.53457C0.370637 3.11212 3.33741 0.914434 6.98867 0.914434C10.6399 0.914434 13.6356 3.339 13.6356 6.56342H10.9822C10.9822 4.68106 9.24212 3.2544 6.93099 3.2544C4.81984 3.2544 3.05092 4.45226 3.05092 6.33461C3.05092 10.8703 14.0047 8.58805 14.0047 15.4061C14.0047 18.9727 10.9245 21.2819 7.07328 21.2819C3.22205 21.2819 0.0264664 18.7151 0.0264664 15.3772V15.3753Z" fill="#252525"/>
<path d="M18.2347 16.6597V8.61501H15.5814V6.39041H17.2926C17.9771 6.39041 18.3482 6.01932 18.3482 5.30599V2.36806H20.6881V6.39041H24.597V8.61501H20.6881V16.2598C20.6881 17.7422 21.6303 18.6843 23.1704 18.6843H24.597V20.9378H22.8281C19.8902 20.9378 18.2347 19.3688 18.2347 16.6597Z" fill="#252525"/>
<path d="M25.4989 13.6644C25.4989 9.32863 28.8368 6.04845 33.2571 6.04845C37.6775 6.04845 40.9884 9.32863 40.9884 13.6644C40.9884 18.0001 37.6506 21.2803 33.2571 21.2803C28.8637 21.2803 25.4989 18.0001 25.4989 13.6644ZM38.4504 13.6644C38.4504 10.6688 36.2258 8.41533 33.2591 8.41533C30.2923 8.41533 28.0388 10.6688 28.0388 13.6644C28.0388 16.66 30.2634 18.9134 33.2591 18.9134C36.2547 18.9134 38.4504 16.66 38.4504 13.6644Z" fill="#252525"/>
<path d="M43.7302 6.39061H46.1836V9.15742C47.2969 7.27507 49.1216 6.1618 51.4038 6.1618H51.8595V8.69981H51.4038C48.1525 8.69981 46.1836 10.6398 46.1836 13.6355V20.938H43.7302V6.39061Z" fill="#252525"/>
<path d="M59.3619 20.8801L53.0284 6.38852H55.824L60.7309 17.998L65.6376 6.38852H68.3756L59.6176 26.3561H56.9642L59.3599 20.8782L59.3619 20.8801Z" fill="#252525"/>
<path d="M70.414 1.25485H79.3143C82.1677 1.25485 84.3634 3.33716 84.3634 6.1905C84.3634 8.13053 83.279 9.78408 81.8523 10.4686C84.0481 11.0396 85.5613 13.1219 85.5613 15.6311C85.5613 18.6825 83.2502 20.9378 80.1411 20.9378H70.414V1.25485ZM72.952 3.62173V9.61296H78.7144C80.3122 9.61296 81.6812 8.32857 81.6812 6.61734C81.6812 4.90611 80.3968 3.62173 78.7144 3.62173H72.952ZM72.952 11.8664V18.569H79.5412C81.4524 18.569 82.8791 17.1135 82.8791 15.2023C82.8791 13.2911 81.4524 11.8645 79.5412 11.8645H72.952V11.8664Z" fill="#252525"/>
<path d="M88.3875 6.39061H90.8409V9.15742C91.9542 7.27507 93.7789 6.1618 96.0612 6.1618H96.5169V8.69981H96.0612C92.8098 8.69981 90.8409 10.6398 90.8409 13.6355V20.938H88.3875V6.39061Z" fill="#252525"/>
<path d="M97.2476 13.6644C97.2476 9.32863 100.357 6.04845 104.521 6.04845C106.946 6.04845 108.944 7.18863 110.17 9.01522V6.3907H112.624V20.9381H110.17V18.3135C108.944 20.1401 106.946 21.2803 104.521 21.2803C100.357 21.2803 97.2476 18.0001 97.2476 13.6644ZM110.17 13.6644C110.17 10.6688 107.946 8.41533 104.979 8.41533C102.012 8.41533 99.7587 10.6688 99.7587 13.6644C99.7587 16.66 101.983 18.9134 104.979 18.9134C107.975 18.9134 110.17 16.66 110.17 13.6644Z" fill="#252525"/>
<path d="M116.242 6.3907H118.696V8.58645C119.836 6.95982 121.662 6.04845 123.945 6.04845C127.482 6.04845 129.849 8.38841 129.849 11.9532V20.9381H127.396V12.7222C127.396 10.1266 125.742 8.41533 123.145 8.41533C120.547 8.41533 118.696 10.1554 118.696 12.7799V20.9381H116.242V6.3907Z" fill="#252525"/>
<path d="M132.456 13.6642C132.456 9.32839 135.566 6.04822 139.73 6.04822C142.155 6.04822 144.152 7.1884 145.379 9.01499V0.399235H147.833V20.9378H145.379V18.3133C144.152 20.1399 142.155 21.2801 139.73 21.2801C135.566 21.2801 132.456 17.9999 132.456 13.6642ZM145.379 13.6642C145.379 10.6685 143.155 8.4151 140.188 8.4151C137.221 8.4151 134.968 10.6685 134.968 13.6642C134.968 16.6598 137.192 18.9132 140.188 18.9132C143.183 18.9132 145.379 16.6598 145.379 13.6642Z" fill="#252525"/>
<path d="M151.123 19.3113C151.123 18.2845 151.92 17.4847 152.949 17.4847C153.978 17.4847 154.803 18.2826 154.803 19.3113C154.803 20.3399 154.005 21.1379 152.949 21.1379C151.894 21.1379 151.123 20.3399 151.123 19.3113Z" fill="#252525"/>
<path d="M156.544 13.6644C156.544 9.32863 159.654 6.04845 163.818 6.04845C166.243 6.04845 168.24 7.18863 169.467 9.01522V6.3907H171.921V20.9381H169.467V18.3135C168.24 20.1401 166.243 21.2803 163.818 21.2803C159.654 21.2803 156.544 18.0001 156.544 13.6644ZM169.467 13.6644C169.467 10.6688 167.243 8.41533 164.276 8.41533C161.309 8.41533 159.056 10.6688 159.056 13.6644C159.056 16.66 161.28 18.9134 164.276 18.9134C167.271 18.9134 169.467 16.66 169.467 13.6644Z" fill="#252525"/>
<path d="M175.145 1.99667C175.145 1.08338 175.858 0.370045 176.799 0.370045C177.739 0.370045 178.425 1.08338 178.425 1.99667C178.425 2.90997 177.712 3.6233 176.799 3.6233C175.885 3.6233 175.145 2.93881 175.145 1.99667ZM175.574 6.39011H178.027V20.9375H175.574V6.39011Z" fill="#252525"/>
</svg>
