<svg width="36" height="32" viewBox="0 0 36 32" fill="none" xmlns="http://www.w3.org/2000/svg">
<path d="M21.3577 32H20.3617V30.0061H21.3577C25.5358 30.0061 28.9352 27.5681 28.9352 24.5725C28.9352 24.3937 28.9236 24.2168 28.8986 24.0418C27.6796 24.586 26.3203 25.0051 24.8551 25.2647C23.7438 25.4627 22.6075 25.1589 21.7384 24.4302C20.8635 23.6977 20.3617 22.6228 20.3617 21.4827C20.3617 20.2233 20.9808 19.0427 22.0172 18.3236C23.0497 17.6084 24.3648 17.4449 25.5377 17.8833C27.4854 18.614 29.0005 19.7945 29.9215 21.2269C31.9846 19.8483 33.2229 17.9891 33.2229 15.999C33.2229 14.009 31.9846 12.1497 29.9215 10.7711C29.0005 12.2036 27.4854 13.3841 25.5377 14.1148C24.3648 14.5551 23.0497 14.3897 22.0172 13.6745C20.9808 12.9554 20.3617 11.7748 20.3617 10.5154C20.3617 9.37523 20.8635 8.30043 21.7384 7.56787C22.6075 6.84107 23.7419 6.53728 24.8551 6.7334C26.3203 6.99489 27.6796 7.41213 28.8986 7.95626C28.9217 7.78129 28.9352 7.6044 28.9352 7.42558V7.15833C28.9352 4.31076 26.6183 1.99195 23.7707 1.99195C20.9232 1.99195 18.6043 4.30884 18.6043 7.15833V24.8398C18.6043 28.7871 15.3934 31.9981 11.446 31.9981C7.49865 31.9981 4.28769 28.7871 4.28769 24.8398V24.5725C4.28769 24.0572 4.35498 23.5496 4.48188 23.0593C1.69585 21.2942 0 18.7582 0 15.999C0 13.2399 1.69585 10.7058 4.48188 8.93877C4.35306 8.44848 4.28769 7.9428 4.28769 7.42558C4.28577 3.33209 8.57922 0 13.8571 0H14.8531V1.99387H13.8571C9.67902 1.99387 6.27964 4.43189 6.27964 7.42751C6.27964 7.60632 6.29117 7.78321 6.31617 7.95818C7.53518 7.41405 8.89455 6.99489 10.3597 6.73532C11.4729 6.53921 12.6073 6.84107 13.4764 7.56979C14.3513 8.30235 14.8531 9.37716 14.8531 10.5173C14.8531 11.7767 14.234 12.9573 13.1976 13.6764C12.1651 14.3916 10.85 14.5551 9.6771 14.1167C7.72938 13.386 6.21426 12.2055 5.29328 10.7731C3.23019 12.1517 1.99195 14.0109 1.99195 16.001C1.99195 17.991 3.23019 19.8503 5.29328 21.2289C6.21426 19.7984 7.72938 18.6159 9.6771 17.8852C10.85 17.4449 12.1651 17.6103 13.1976 18.3255C14.234 19.0446 14.8531 20.2252 14.8531 21.4846C14.8531 22.6248 14.3513 23.6996 13.4764 24.4321C12.6073 25.1608 11.4729 25.4646 10.3597 25.2666C8.89455 25.0051 7.53518 24.5879 6.31617 24.0437C6.2931 24.2187 6.27964 24.3956 6.27964 24.5744V24.8417C6.27964 27.6892 8.59653 30.0081 11.4441 30.0081C14.2917 30.0081 16.6105 27.6912 16.6105 24.8417V7.15833C16.6105 3.21096 19.8214 0 23.7688 0C27.7162 0 30.9271 3.21096 30.9271 7.15833V7.42558C30.9271 7.94088 30.8598 8.44848 30.7329 8.93877C33.517 10.7058 35.2148 13.2418 35.2148 15.999C35.2148 18.7562 33.519 21.2923 30.7329 23.0593C30.8617 23.5496 30.9271 24.0553 30.9271 24.5725C30.9271 28.6679 26.6337 32 21.3577 32ZM24.1918 19.633C23.8265 19.633 23.4669 19.7445 23.1516 19.9637C22.6459 20.3136 22.3537 20.8693 22.3537 21.4846C22.3537 22.0345 22.5959 22.5517 23.017 22.9055C23.4323 23.2535 23.9745 23.3996 24.5033 23.3054C25.8415 23.067 27.074 22.6882 28.1642 22.196C27.4643 21.1712 26.3126 20.3079 24.834 19.7541C24.6225 19.6753 24.4052 19.6349 24.1879 19.6349L24.1918 19.633ZM7.04681 22.1941C8.13892 22.6863 9.37139 23.0651 10.7077 23.3035C11.2384 23.3977 11.7786 23.2516 12.194 22.9036C12.615 22.5498 12.8573 22.0326 12.8573 21.4827C12.8573 20.8674 12.567 20.3136 12.0594 19.9618C11.5575 19.6138 10.9442 19.5369 10.3751 19.7503C8.89647 20.304 7.74668 21.1673 7.04488 22.1922L7.04681 22.1941ZM7.04681 9.80592C7.74668 10.8307 8.8984 11.694 10.377 12.2478C10.9461 12.4612 11.5595 12.3843 12.0613 12.0363C12.567 11.6844 12.8592 11.1307 12.8592 10.5154C12.8592 9.96551 12.617 9.4483 12.1959 9.09451C11.7806 8.7465 11.2384 8.60037 10.7096 8.69459C9.37139 8.93301 8.13892 9.31178 7.04873 9.804L7.04681 9.80592ZM24.1879 8.66959C23.7649 8.66959 23.3516 8.81764 23.0189 9.09644C22.5979 9.45022 22.3556 9.96743 22.3556 10.5173C22.3556 11.1326 22.6459 11.6864 23.1535 12.0382C23.6554 12.3862 24.2706 12.4631 24.8378 12.2497C26.3164 11.696 27.4662 10.8327 28.168 9.80785C27.0759 9.31563 25.8434 8.93685 24.5071 8.69843C24.4014 8.6792 24.2956 8.66959 24.1899 8.66959H24.1879Z" fill="#7C00FF"/>
</svg>
